# MagicaVoxel @ Ephtracy

# material
mtllib coffee table.mtl
usemtl palette

# normals
vn -1 0 0
vn 1 0 0
vn 0 0 1
vn 0 0 -1
vn 0 -1 0
vn 0 1 0

# texcoords
vt 0.537109 0.5
vt 0.982422 0.5

# verts
v -11.5 21 32
v -11.5 21 -32
v -11.5 22 32
v -11.5 22 -32
v -10.5 0 30
v -10.5 0 -30
v -10.5 21 30
v -10.5 21 -30
v 9.5 0 30
v 9.5 0 -30
v 9.5 2 29
v 9.5 2 17
v 9.5 2 15
v 9.5 2 4
v 9.5 2 -0
v 9.5 2 -27
v 9.5 4 -0
v 9.5 4 -27
v 9.5 6 -0
v 9.5 6 -27
v 9.5 11 -0
v 9.5 11 -27
v 9.5 14 -0
v 9.5 14 -27
v 9.5 19 29
v 9.5 19 17
v 9.5 19 15
v 9.5 19 4
v 9.5 19 -0
v 9.5 19 -27
v 9.5 21 30
v 9.5 21 -30
v 10.5 2 29
v 10.5 2 17
v 10.5 2 15
v 10.5 2 4
v 10.5 2 -0
v 10.5 2 -27
v 10.5 4 -0
v 10.5 4 -27
v 10.5 6 -0
v 10.5 6 -27
v 10.5 8 -11
v 10.5 8 -16
v 10.5 9 -11
v 10.5 9 -16
v 10.5 11 -0
v 10.5 11 -27
v 10.5 12 21
v 10.5 12 19
v 10.5 12 13
v 10.5 12 11
v 10.5 14 21
v 10.5 14 19
v 10.5 14 13
v 10.5 14 11
v 10.5 14 -0
v 10.5 14 -27
v 10.5 16 -11
v 10.5 16 -16
v 10.5 17 -11
v 10.5 17 -16
v 10.5 19 29
v 10.5 19 17
v 10.5 19 15
v 10.5 19 4
v 10.5 19 -0
v 10.5 19 -27
v 11.5 8 -11
v 11.5 8 -16
v 11.5 9 -11
v 11.5 9 -16
v 11.5 12 21
v 11.5 12 19
v 11.5 12 13
v 11.5 12 11
v 11.5 14 21
v 11.5 14 19
v 11.5 14 13
v 11.5 14 11
v 11.5 16 -11
v 11.5 16 -16
v 11.5 17 -11
v 11.5 17 -16
v 11.5 21 32
v 11.5 21 -32
v 11.5 22 32
v 11.5 22 -32
v -11.5 21 32
v -11.5 22 32
v 11.5 21 32
v 11.5 22 32
v -10.5 0 30
v -10.5 21 30
v 9.5 0 30
v 9.5 21 30
v 9.5 2 29
v 9.5 19 29
v 10.5 2 29
v 10.5 19 29
v 10.5 12 21
v 10.5 14 21
v 11.5 12 21
v 11.5 14 21
v 9.5 2 15
v 9.5 19 15
v 10.5 2 15
v 10.5 19 15
v 10.5 12 13
v 10.5 14 13
v 11.5 12 13
v 11.5 14 13
v 9.5 2 -0
v 9.5 4 -0
v 9.5 6 -0
v 9.5 11 -0
v 9.5 14 -0
v 9.5 19 -0
v 10.5 2 -0
v 10.5 4 -0
v 10.5 6 -0
v 10.5 11 -0
v 10.5 14 -0
v 10.5 19 -0
v 10.5 8 -11
v 10.5 9 -11
v 10.5 16 -11
v 10.5 17 -11
v 11.5 8 -11
v 11.5 9 -11
v 11.5 16 -11
v 11.5 17 -11
v 10.5 12 19
v 10.5 14 19
v 11.5 12 19
v 11.5 14 19
v 9.5 2 17
v 9.5 19 17
v 10.5 2 17
v 10.5 19 17
v 10.5 12 11
v 10.5 14 11
v 11.5 12 11
v 11.5 14 11
v 9.5 2 4
v 9.5 19 4
v 10.5 2 4
v 10.5 19 4
v 10.5 8 -16
v 10.5 9 -16
v 10.5 16 -16
v 10.5 17 -16
v 11.5 8 -16
v 11.5 9 -16
v 11.5 16 -16
v 11.5 17 -16
v 9.5 2 -27
v 9.5 4 -27
v 9.5 6 -27
v 9.5 11 -27
v 9.5 14 -27
v 9.5 19 -27
v 10.5 2 -27
v 10.5 4 -27
v 10.5 6 -27
v 10.5 11 -27
v 10.5 14 -27
v 10.5 19 -27
v -10.5 0 -30
v -10.5 21 -30
v 9.5 0 -30
v 9.5 21 -30
v -11.5 21 -32
v -11.5 22 -32
v 11.5 21 -32
v 11.5 22 -32
v -10.5 0 30
v 9.5 0 30
v -10.5 0 -30
v 9.5 0 -30
v 9.5 2 29
v 10.5 2 29
v 9.5 2 17
v 10.5 2 17
v 9.5 2 15
v 10.5 2 15
v 9.5 2 4
v 10.5 2 4
v 9.5 2 -0
v 10.5 2 -0
v 9.5 2 -27
v 10.5 2 -27
v 9.5 6 -0
v 10.5 6 -0
v 9.5 6 -27
v 10.5 6 -27
v 10.5 8 -11
v 11.5 8 -11
v 10.5 8 -16
v 11.5 8 -16
v 10.5 12 21
v 11.5 12 21
v 10.5 12 19
v 11.5 12 19
v 10.5 12 13
v 11.5 12 13
v 10.5 12 11
v 11.5 12 11
v 9.5 14 -0
v 10.5 14 -0
v 9.5 14 -27
v 10.5 14 -27
v 10.5 16 -11
v 11.5 16 -11
v 10.5 16 -16
v 11.5 16 -16
v -11.5 21 32
v 11.5 21 32
v -10.5 21 30
v 9.5 21 30
v -10.5 21 -30
v 9.5 21 -30
v -11.5 21 -32
v 11.5 21 -32
v 9.5 4 -0
v 10.5 4 -0
v 9.5 4 -27
v 10.5 4 -27
v 10.5 9 -11
v 11.5 9 -11
v 10.5 9 -16
v 11.5 9 -16
v 9.5 11 -0
v 10.5 11 -0
v 9.5 11 -27
v 10.5 11 -27
v 10.5 14 21
v 11.5 14 21
v 10.5 14 19
v 11.5 14 19
v 10.5 14 13
v 11.5 14 13
v 10.5 14 11
v 11.5 14 11
v 10.5 17 -11
v 11.5 17 -11
v 10.5 17 -16
v 11.5 17 -16
v 9.5 19 29
v 10.5 19 29
v 9.5 19 17
v 10.5 19 17
v 9.5 19 15
v 10.5 19 15
v 9.5 19 4
v 10.5 19 4
v 9.5 19 -0
v 10.5 19 -0
v 9.5 19 -27
v 10.5 19 -27
v -11.5 22 32
v 11.5 22 32
v -11.5 22 -32
v 11.5 22 -32

# faces
f 3/1/1 2/1/1 1/1/1
f 4/1/1 2/1/1 3/1/1
f 7/1/1 6/1/1 5/1/1
f 8/1/1 6/1/1 7/1/1
f 9/1/2 10/1/2 11/1/2
f 11/1/2 10/1/2 12/1/2
f 12/1/2 10/1/2 13/1/2
f 13/1/2 10/1/2 14/1/2
f 14/1/2 10/1/2 15/1/2
f 15/1/2 10/1/2 16/1/2
f 14/1/2 15/1/2 17/1/2
f 16/1/2 10/1/2 18/1/2
f 14/1/2 17/1/2 19/1/2
f 17/1/2 18/1/2 19/1/2
f 18/1/2 10/1/2 20/1/2
f 19/1/2 18/1/2 20/1/2
f 14/1/2 19/1/2 21/1/2
f 20/1/2 10/1/2 22/1/2
f 14/1/2 21/1/2 23/1/2
f 21/1/2 22/1/2 23/1/2
f 22/1/2 10/1/2 24/1/2
f 23/1/2 22/1/2 24/1/2
f 9/1/2 11/1/2 25/1/2
f 12/1/2 13/1/2 26/1/2
f 26/1/2 13/1/2 27/1/2
f 14/1/2 23/1/2 28/1/2
f 28/1/2 23/1/2 29/1/2
f 24/1/2 10/1/2 30/1/2
f 28/1/2 29/1/2 31/1/2
f 29/1/2 30/1/2 31/1/2
f 26/1/2 27/1/2 31/1/2
f 9/1/2 25/1/2 31/1/2
f 27/1/2 28/1/2 31/1/2
f 25/1/2 26/1/2 31/1/2
f 30/1/2 10/1/2 32/1/2
f 31/1/2 30/1/2 32/1/2
f 37/1/2 38/1/2 39/1/2
f 39/1/2 38/1/2 40/1/2
f 41/1/2 42/1/2 43/1/2
f 43/1/2 42/1/2 44/1/2
f 41/1/2 43/1/2 45/1/2
f 44/1/2 42/1/2 46/1/2
f 41/1/2 45/1/2 47/1/2
f 45/1/2 46/1/2 47/1/2
f 46/1/2 42/1/2 48/1/2
f 47/1/2 46/1/2 48/1/2
f 33/1/2 34/1/2 49/1/2
f 49/1/2 34/1/2 50/1/2
f 35/1/2 36/1/2 51/1/2
f 51/1/2 36/1/2 52/1/2
f 33/1/2 49/1/2 53/1/2
f 50/1/2 34/1/2 54/1/2
f 35/1/2 51/1/2 55/1/2
f 52/1/2 36/1/2 56/1/2
f 57/1/2 58/1/2 59/1/2
f 59/1/2 58/1/2 60/1/2
f 57/1/2 59/1/2 61/1/2
f 60/1/2 58/1/2 62/1/2
f 33/1/2 53/1/2 63/1/2
f 53/1/2 54/1/2 63/1/2
f 54/1/2 34/1/2 64/1/2
f 63/1/2 54/1/2 64/1/2
f 35/1/2 55/1/2 65/1/2
f 55/1/2 56/1/2 65/1/2
f 56/1/2 36/1/2 66/1/2
f 65/1/2 56/1/2 66/1/2
f 61/1/2 62/1/2 67/1/2
f 57/1/2 61/1/2 67/1/2
f 62/1/2 58/1/2 68/1/2
f 67/1/2 62/1/2 68/1/2
f 69/2/2 70/2/2 71/2/2
f 71/2/2 70/2/2 72/2/2
f 73/2/2 74/2/2 77/2/2
f 77/2/2 74/2/2 78/2/2
f 75/2/2 76/2/2 79/2/2
f 79/2/2 76/2/2 80/2/2
f 81/2/2 82/2/2 83/2/2
f 83/2/2 82/2/2 84/2/2
f 85/1/2 86/1/2 87/1/2
f 87/1/2 86/1/2 88/1/2
f 91/1/3 90/1/3 89/1/3
f 92/1/3 90/1/3 91/1/3
f 95/1/3 94/1/3 93/1/3
f 96/1/3 94/1/3 95/1/3
f 99/1/3 98/1/3 97/1/3
f 100/1/3 98/1/3 99/1/3
f 103/2/3 102/2/3 101/2/3
f 104/2/3 102/2/3 103/2/3
f 107/1/3 106/1/3 105/1/3
f 108/1/3 106/1/3 107/1/3
f 111/2/3 110/2/3 109/2/3
f 112/2/3 110/2/3 111/2/3
f 119/1/3 114/1/3 113/1/3
f 120/1/3 114/1/3 119/1/3
f 121/1/3 116/1/3 115/1/3
f 122/1/3 116/1/3 121/1/3
f 123/1/3 118/1/3 117/1/3
f 124/1/3 118/1/3 123/1/3
f 129/2/3 126/2/3 125/2/3
f 130/2/3 126/2/3 129/2/3
f 131/2/3 128/2/3 127/2/3
f 132/2/3 128/2/3 131/2/3
f 133/2/4 134/2/4 135/2/4
f 135/2/4 134/2/4 136/2/4
f 137/1/4 138/1/4 139/1/4
f 139/1/4 138/1/4 140/1/4
f 141/2/4 142/2/4 143/2/4
f 143/2/4 142/2/4 144/2/4
f 145/1/4 146/1/4 147/1/4
f 147/1/4 146/1/4 148/1/4
f 149/2/4 150/2/4 153/2/4
f 153/2/4 150/2/4 154/2/4
f 151/2/4 152/2/4 155/2/4
f 155/2/4 152/2/4 156/2/4
f 157/1/4 158/1/4 163/1/4
f 163/1/4 158/1/4 164/1/4
f 159/1/4 160/1/4 165/1/4
f 165/1/4 160/1/4 166/1/4
f 161/1/4 162/1/4 167/1/4
f 167/1/4 162/1/4 168/1/4
f 169/1/4 170/1/4 171/1/4
f 171/1/4 170/1/4 172/1/4
f 173/1/4 174/1/4 175/1/4
f 175/1/4 174/1/4 176/1/4
f 179/1/5 178/1/5 177/1/5
f 180/1/5 178/1/5 179/1/5
f 183/1/5 182/1/5 181/1/5
f 184/1/5 182/1/5 183/1/5
f 187/1/5 186/1/5 185/1/5
f 188/1/5 186/1/5 187/1/5
f 191/1/5 190/1/5 189/1/5
f 192/1/5 190/1/5 191/1/5
f 195/1/5 194/1/5 193/1/5
f 196/1/5 194/1/5 195/1/5
f 199/2/5 198/2/5 197/2/5
f 200/2/5 198/2/5 199/2/5
f 203/2/5 202/2/5 201/2/5
f 204/2/5 202/2/5 203/2/5
f 207/2/5 206/2/5 205/2/5
f 208/2/5 206/2/5 207/2/5
f 211/1/5 210/1/5 209/1/5
f 212/1/5 210/1/5 211/1/5
f 215/2/5 214/2/5 213/2/5
f 216/2/5 214/2/5 215/2/5
f 219/1/5 218/1/5 217/1/5
f 220/1/5 218/1/5 219/1/5
f 221/1/5 219/1/5 217/1/5
f 222/1/5 218/1/5 220/1/5
f 223/1/5 221/1/5 217/1/5
f 223/1/5 222/1/5 221/1/5
f 224/1/5 218/1/5 222/1/5
f 224/1/5 222/1/5 223/1/5
f 225/1/6 226/1/6 227/1/6
f 227/1/6 226/1/6 228/1/6
f 229/2/6 230/2/6 231/2/6
f 231/2/6 230/2/6 232/2/6
f 233/1/6 234/1/6 235/1/6
f 235/1/6 234/1/6 236/1/6
f 237/2/6 238/2/6 239/2/6
f 239/2/6 238/2/6 240/2/6
f 241/2/6 242/2/6 243/2/6
f 243/2/6 242/2/6 244/2/6
f 245/2/6 246/2/6 247/2/6
f 247/2/6 246/2/6 248/2/6
f 249/1/6 250/1/6 251/1/6
f 251/1/6 250/1/6 252/1/6
f 253/1/6 254/1/6 255/1/6
f 255/1/6 254/1/6 256/1/6
f 257/1/6 258/1/6 259/1/6
f 259/1/6 258/1/6 260/1/6
f 261/1/6 262/1/6 263/1/6
f 263/1/6 262/1/6 264/1/6
