# MagicaVoxel @ Ephtracy

# material
mtllib lift botton.mtl
usemtl palette

# normals
vn -1 0 0
vn 1 0 0
vn 0 0 1
vn 0 0 -1
vn 0 -1 0
vn 0 1 0

# texcoords
vt 0.841797 0.5
vt 0.861328 0.5
vt 0.896484 0.5
vt 0.904297 0.5
vt 0.962891 0.5

# verts
v -8 0 4.5
v -8 0 -4.5
v -8 1 4.5
v -8 1 -4.5
v -6 1 2.5
v -6 1 -2.5
v -6 2 2.5
v -6 2 -2.5
v -5 2 0.5
v -5 2 -0.5
v -5 3 0.5
v -5 3 -0.5
v -4 2 1.5
v -4 2 0.5
v -4 2 -0.5
v -4 2 -1.5
v -4 3 1.5
v -4 3 0.5
v -4 3 -0.5
v -4 3 -1.5
v 1 1 2.5
v 1 1 -2.5
v 1 2 2.5
v 1 2 -2.5
v 3 2 1.5
v 3 2 -1.5
v 3 3 1.5
v 3 3 -1.5
v -3 2 1.5
v -3 2 -1.5
v -3 3 1.5
v -3 3 -1.5
v -1 1 2.5
v -1 1 -2.5
v -1 2 2.5
v -1 2 -2.5
v 4 2 1.5
v 4 2 0.5
v 4 2 -0.5
v 4 2 -1.5
v 4 3 1.5
v 4 3 0.5
v 4 3 -0.5
v 4 3 -1.5
v 5 2 0.5
v 5 2 -0.5
v 5 3 0.5
v 5 3 -0.5
v 6 1 2.5
v 6 1 -2.5
v 6 2 2.5
v 6 2 -2.5
v 8 0 4.5
v 8 0 -4.5
v 8 1 4.5
v 8 1 -4.5
v -8 0 4.5
v -8 1 4.5
v 8 0 4.5
v 8 1 4.5
v -6 1 2.5
v -6 2 2.5
v -1 1 2.5
v -1 2 2.5
v 1 1 2.5
v 1 2 2.5
v 6 1 2.5
v 6 2 2.5
v -4 2 1.5
v -4 3 1.5
v -3 2 1.5
v -3 3 1.5
v 3 2 1.5
v 3 3 1.5
v 4 2 1.5
v 4 3 1.5
v -5 2 0.5
v -5 3 0.5
v -4 2 0.5
v -4 3 0.5
v 4 2 0.5
v 4 3 0.5
v 5 2 0.5
v 5 3 0.5
v -5 2 -0.5
v -5 3 -0.5
v -4 2 -0.5
v -4 3 -0.5
v 4 2 -0.5
v 4 3 -0.5
v 5 2 -0.5
v 5 3 -0.5
v -4 2 -1.5
v -4 3 -1.5
v -3 2 -1.5
v -3 3 -1.5
v 3 2 -1.5
v 3 3 -1.5
v 4 2 -1.5
v 4 3 -1.5
v -6 1 -2.5
v -6 2 -2.5
v -1 1 -2.5
v -1 2 -2.5
v 1 1 -2.5
v 1 2 -2.5
v 6 1 -2.5
v 6 2 -2.5
v -8 0 -4.5
v -8 1 -4.5
v 8 0 -4.5
v 8 1 -4.5
v -8 0 4.5
v 8 0 4.5
v -8 0 -4.5
v 8 0 -4.5
v -8 1 4.5
v 8 1 4.5
v -6 1 2.5
v -1 1 2.5
v 1 1 2.5
v 6 1 2.5
v -6 1 -2.5
v -1 1 -2.5
v 1 1 -2.5
v 6 1 -2.5
v -8 1 -4.5
v 8 1 -4.5
v -6 2 2.5
v -1 2 2.5
v 1 2 2.5
v 6 2 2.5
v -4 2 1.5
v -3 2 1.5
v 3 2 1.5
v 4 2 1.5
v -5 2 0.5
v -4 2 0.5
v 4 2 0.5
v 5 2 0.5
v -5 2 -0.5
v -4 2 -0.5
v 4 2 -0.5
v 5 2 -0.5
v -4 2 -1.5
v -3 2 -1.5
v 3 2 -1.5
v 4 2 -1.5
v -6 2 -2.5
v -1 2 -2.5
v 1 2 -2.5
v 6 2 -2.5
v -4 3 1.5
v -3 3 1.5
v 3 3 1.5
v 4 3 1.5
v -5 3 0.5
v -4 3 0.5
v 4 3 0.5
v 5 3 0.5
v -5 3 -0.5
v -4 3 -0.5
v 4 3 -0.5
v 5 3 -0.5
v -4 3 -1.5
v -3 3 -1.5
v 3 3 -1.5
v 4 3 -1.5

# faces
f 3/5/1 2/5/1 1/5/1
f 4/5/1 2/5/1 3/5/1
f 7/3/1 6/3/1 5/3/1
f 8/3/1 6/3/1 7/3/1
f 11/4/1 10/4/1 9/4/1
f 12/4/1 10/4/1 11/4/1
f 17/4/1 14/4/1 13/4/1
f 18/4/1 14/4/1 17/4/1
f 19/4/1 16/4/1 15/4/1
f 20/4/1 16/4/1 19/4/1
f 23/1/1 22/1/1 21/1/1
f 24/1/1 22/1/1 23/1/1
f 27/2/1 26/2/1 25/2/1
f 28/2/1 26/2/1 27/2/1
f 29/4/2 30/4/2 31/4/2
f 31/4/2 30/4/2 32/4/2
f 33/3/2 34/3/2 35/3/2
f 35/3/2 34/3/2 36/3/2
f 37/2/2 38/2/2 41/2/2
f 41/2/2 38/2/2 42/2/2
f 39/2/2 40/2/2 43/2/2
f 43/2/2 40/2/2 44/2/2
f 45/2/2 46/2/2 47/2/2
f 47/2/2 46/2/2 48/2/2
f 49/1/2 50/1/2 51/1/2
f 51/1/2 50/1/2 52/1/2
f 53/5/2 54/5/2 55/5/2
f 55/5/2 54/5/2 56/5/2
f 59/5/3 58/5/3 57/5/3
f 60/5/3 58/5/3 59/5/3
f 63/3/3 62/3/3 61/3/3
f 64/3/3 62/3/3 63/3/3
f 67/1/3 66/1/3 65/1/3
f 68/1/3 66/1/3 67/1/3
f 71/4/3 70/4/3 69/4/3
f 72/4/3 70/4/3 71/4/3
f 75/2/3 74/2/3 73/2/3
f 76/2/3 74/2/3 75/2/3
f 79/4/3 78/4/3 77/4/3
f 80/4/3 78/4/3 79/4/3
f 83/2/3 82/2/3 81/2/3
f 84/2/3 82/2/3 83/2/3
f 85/4/4 86/4/4 87/4/4
f 87/4/4 86/4/4 88/4/4
f 89/2/4 90/2/4 91/2/4
f 91/2/4 90/2/4 92/2/4
f 93/4/4 94/4/4 95/4/4
f 95/4/4 94/4/4 96/4/4
f 97/2/4 98/2/4 99/2/4
f 99/2/4 98/2/4 100/2/4
f 101/3/4 102/3/4 103/3/4
f 103/3/4 102/3/4 104/3/4
f 105/1/4 106/1/4 107/1/4
f 107/1/4 106/1/4 108/1/4
f 109/5/4 110/5/4 111/5/4
f 111/5/4 110/5/4 112/5/4
f 115/5/5 114/5/5 113/5/5
f 116/5/5 114/5/5 115/5/5
f 117/5/6 118/5/6 119/5/6
f 119/5/6 118/5/6 120/5/6
f 120/5/6 118/5/6 121/5/6
f 121/5/6 118/5/6 122/5/6
f 117/5/6 119/5/6 123/5/6
f 120/5/6 121/5/6 124/5/6
f 124/5/6 121/5/6 125/5/6
f 122/5/6 118/5/6 126/5/6
f 124/5/6 125/5/6 127/5/6
f 125/5/6 126/5/6 127/5/6
f 117/5/6 123/5/6 127/5/6
f 123/5/6 124/5/6 127/5/6
f 126/5/6 118/5/6 128/5/6
f 127/5/6 126/5/6 128/5/6
f 129/3/6 130/3/6 133/3/6
f 133/3/6 130/3/6 134/3/6
f 131/1/6 132/1/6 135/1/6
f 135/1/6 132/1/6 136/1/6
f 129/3/6 133/3/6 137/3/6
f 137/3/6 133/3/6 138/3/6
f 136/1/6 132/1/6 139/1/6
f 139/1/6 132/1/6 140/1/6
f 129/3/6 137/3/6 141/3/6
f 140/1/6 132/1/6 144/1/6
f 141/3/6 142/3/6 145/3/6
f 134/3/6 130/3/6 146/3/6
f 131/1/6 135/1/6 147/1/6
f 143/1/6 144/1/6 148/1/6
f 141/3/6 145/3/6 149/3/6
f 145/3/6 146/3/6 149/3/6
f 129/3/6 141/3/6 149/3/6
f 146/3/6 130/3/6 150/3/6
f 149/3/6 146/3/6 150/3/6
f 147/1/6 148/1/6 151/1/6
f 131/1/6 147/1/6 151/1/6
f 148/1/6 144/1/6 152/1/6
f 151/1/6 148/1/6 152/1/6
f 144/1/6 132/1/6 152/1/6
f 153/4/6 154/4/6 158/4/6
f 155/2/6 156/2/6 159/2/6
f 157/4/6 158/4/6 161/4/6
f 158/4/6 154/4/6 162/4/6
f 161/4/6 158/4/6 162/4/6
f 159/2/6 160/2/6 163/2/6
f 155/2/6 159/2/6 163/2/6
f 163/2/6 160/2/6 164/2/6
f 162/4/6 154/4/6 165/4/6
f 165/4/6 154/4/6 166/4/6
f 155/2/6 163/2/6 167/2/6
f 167/2/6 163/2/6 168/2/6
