# MagicaVoxel @ Ephtracy

# material
mtllib toilet.mtl
usemtl palette

# normals
vn -1 0 0
vn 1 0 0
vn 0 0 1
vn 0 0 -1
vn 0 -1 0
vn 0 1 0

# texcoords
vt 0.962891 0.5
vt 0.982422 0.5

# verts
v -27 18 4
v -27 18 -0
v -27 23 4
v -27 23 -0
v -26 18 5
v -26 18 4
v -26 18 -0
v -26 18 -1
v -26 23 5
v -26 23 4
v -26 23 -0
v -26 23 -1
v -25 18 6
v -25 18 5
v -25 18 -1
v -25 18 -2
v -25 23 6
v -25 23 5
v -25 23 -1
v -25 23 -2
v -24 18 7
v -24 18 6
v -24 18 -2
v -24 18 -3
v -24 23 7
v -24 23 6
v -24 23 -2
v -24 23 -3
v -23 18 8
v -23 18 7
v -23 22 -3
v -23 22 -4
v -23 23 8
v -23 23 7
v -23 23 -3
v -23 23 -4
v -22 18 9
v -22 18 8
v -22 18 -3
v -22 18 -4
v -22 22 -3
v -22 22 -4
v -22 22 -5
v -22 23 9
v -22 23 8
v -22 23 -4
v -22 23 -5
v -21 17 6
v -21 17 -1
v -21 18 6
v -21 18 -1
v -21 21 -4
v -21 21 -5
v -21 22 -4
v -21 22 -5
v -20 7 5
v -20 7 -0
v -20 17 5
v -20 17 -0
v -20 18 10
v -20 18 9
v -20 18 -4
v -20 18 -5
v -20 21 -4
v -20 21 -5
v -20 22 -5
v -20 22 -6
v -20 23 10
v -20 23 9
v -20 23 -5
v -20 23 -6
v -15 7 4
v -15 7 1
v -15 18 5
v -15 18 4
v -15 18 1
v -15 18 -0
v -15 19 5
v -15 19 -0
v -14 19 7
v -14 19 -3
v -14 21 8
v -14 21 7
v -14 21 -3
v -14 21 -4
v -14 22 9
v -14 22 8
v -14 22 -4
v -14 22 -5
v -14 23 9
v -14 23 8
v -14 23 -4
v -14 23 -5
v -13 22 8
v -13 22 -4
v -13 23 8
v -13 23 -4
v -11 27 8
v -11 27 5
v -11 28 8
v -11 28 5
v -10 23 7
v -10 23 -3
v -10 27 7
v -10 27 5
v -10 28 7
v -10 28 5
v -10 30 7
v -10 30 -3
v -9 30 7
v -9 30 -3
v -9 31 7
v -9 31 -3
v -26 22 4
v -26 22 -0
v -26 23 4
v -26 23 -0
v -25 21 4
v -25 21 -0
v -25 22 5
v -25 22 4
v -25 22 -0
v -25 22 -1
v -25 23 5
v -25 23 4
v -25 23 -0
v -25 23 -1
v -24 19 4
v -24 19 -0
v -24 21 5
v -24 21 4
v -24 21 -0
v -24 21 -1
v -24 22 6
v -24 22 5
v -24 22 4
v -24 22 -0
v -24 22 -1
v -24 22 -2
v -24 23 6
v -24 23 5
v -24 23 -1
v -24 23 -2
v -23 19 5
v -23 19 4
v -23 19 -0
v -23 19 -1
v -23 21 6
v -23 21 5
v -23 21 4
v -23 21 -0
v -23 21 -1
v -23 21 -2
v -23 22 7
v -23 22 6
v -23 22 5
v -23 22 -1
v -23 22 -2
v -23 22 -3
v -23 23 7
v -23 23 6
v -23 23 -2
v -23 23 -3
v -22 19 6
v -22 19 5
v -22 19 -1
v -22 19 -2
v -22 21 7
v -22 21 6
v -22 21 5
v -22 21 -1
v -22 21 -2
v -22 21 -3
v -22 22 8
v -22 22 7
v -22 22 6
v -22 22 -2
v -22 22 -3
v -22 22 -4
v -22 23 8
v -22 23 7
v -22 23 -3
v -22 23 -4
v -21 19 7
v -21 19 6
v -21 19 -2
v -21 19 -3
v -21 21 8
v -21 21 7
v -21 21 6
v -21 21 -2
v -21 21 -3
v -21 21 -4
v -21 22 8
v -21 22 7
v -21 22 -3
v -21 22 -4
v -20 18 4
v -20 18 1
v -20 19 4
v -20 19 1
v -20 22 9
v -20 22 8
v -20 22 -4
v -20 22 -5
v -20 23 9
v -20 23 8
v -20 23 -4
v -20 23 -5
v -19 7 4
v -19 7 1
v -19 18 5
v -19 18 4
v -19 18 1
v -19 18 -0
v -19 19 5
v -19 19 4
v -19 19 1
v -19 19 -0
v -14 7 5
v -14 7 -0
v -14 17 6
v -14 17 5
v -14 17 -0
v -14 17 -1
v -14 18 10
v -14 18 9
v -14 18 6
v -14 18 -1
v -14 18 -4
v -14 18 -5
v -14 22 -4
v -14 22 -5
v -14 22 -6
v -14 23 10
v -14 23 9
v -14 23 -5
v -14 23 -6
v -12 18 9
v -12 18 8
v -12 22 -4
v -12 22 -5
v -12 23 9
v -12 23 8
v -12 23 -4
v -12 23 -5
v -11 18 8
v -11 18 7
v -11 18 -3
v -11 18 -4
v -11 23 8
v -11 23 7
v -11 23 -3
v -11 23 -4
v -10 27 8
v -10 27 7
v -10 28 8
v -10 28 7
v -5 18 7
v -5 18 -3
v -5 31 7
v -5 31 -3
v -20 18 10
v -20 23 10
v -14 18 10
v -14 23 10
v -22 18 9
v -22 23 9
v -20 18 9
v -20 23 9
v -14 18 9
v -14 23 9
v -12 18 9
v -12 23 9
v -23 18 8
v -23 23 8
v -22 18 8
v -22 23 8
v -12 18 8
v -12 23 8
v -11 18 8
v -11 23 8
v -11 27 8
v -11 28 8
v -10 27 8
v -10 28 8
v -24 18 7
v -24 23 7
v -23 18 7
v -23 23 7
v -11 18 7
v -11 23 7
v -10 23 7
v -10 27 7
v -10 28 7
v -10 30 7
v -9 30 7
v -9 31 7
v -5 18 7
v -5 31 7
v -25 18 6
v -25 23 6
v -24 18 6
v -24 23 6
v -21 17 6
v -21 18 6
v -14 17 6
v -14 18 6
v -26 18 5
v -26 23 5
v -25 18 5
v -25 23 5
v -20 7 5
v -20 17 5
v -14 7 5
v -14 17 5
v -27 18 4
v -27 23 4
v -26 18 4
v -26 23 4
v -20 18 1
v -20 19 1
v -19 7 1
v -19 18 1
v -19 19 1
v -15 7 1
v -15 18 1
v -26 22 -0
v -26 23 -0
v -25 21 -0
v -25 22 -0
v -25 23 -0
v -24 19 -0
v -24 21 -0
v -24 22 -0
v -23 19 -0
v -23 21 -0
v -19 18 -0
v -19 19 -0
v -15 18 -0
v -15 19 -0
v -25 22 -1
v -25 23 -1
v -24 21 -1
v -24 22 -1
v -24 23 -1
v -23 19 -1
v -23 21 -1
v -23 22 -1
v -22 19 -1
v -22 21 -1
v -24 22 -2
v -24 23 -2
v -23 21 -2
v -23 22 -2
v -23 23 -2
v -22 19 -2
v -22 21 -2
v -22 22 -2
v -21 19 -2
v -21 21 -2
v -23 22 -3
v -23 23 -3
v -22 21 -3
v -22 22 -3
v -22 23 -3
v -21 19 -3
v -21 21 -3
v -21 22 -3
v -14 19 -3
v -14 21 -3
v -22 22 -4
v -22 23 -4
v -21 21 -4
v -21 22 -4
v -20 22 -4
v -20 23 -4
v -14 21 -4
v -14 22 -4
v -14 23 -4
v -13 22 -4
v -13 23 -4
v -20 22 -5
v -20 23 -5
v -14 22 -5
v -14 23 -5
v -20 22 9
v -20 23 9
v -14 22 9
v -14 23 9
v -22 22 8
v -22 23 8
v -21 21 8
v -21 22 8
v -20 22 8
v -20 23 8
v -14 21 8
v -14 22 8
v -14 23 8
v -13 22 8
v -13 23 8
v -23 22 7
v -23 23 7
v -22 21 7
v -22 22 7
v -22 23 7
v -21 19 7
v -21 21 7
v -21 22 7
v -14 19 7
v -14 21 7
v -24 22 6
v -24 23 6
v -23 21 6
v -23 22 6
v -23 23 6
v -22 19 6
v -22 21 6
v -22 22 6
v -21 19 6
v -21 21 6
v -25 22 5
v -25 23 5
v -24 21 5
v -24 22 5
v -24 23 5
v -23 19 5
v -23 21 5
v -23 22 5
v -22 19 5
v -22 21 5
v -19 18 5
v -19 19 5
v -15 18 5
v -15 19 5
v -11 27 5
v -11 28 5
v -10 27 5
v -10 28 5
v -26 22 4
v -26 23 4
v -25 21 4
v -25 22 4
v -25 23 4
v -24 19 4
v -24 21 4
v -24 22 4
v -23 19 4
v -23 21 4
v -20 18 4
v -20 19 4
v -19 7 4
v -19 18 4
v -19 19 4
v -15 7 4
v -15 18 4
v -27 18 -0
v -27 23 -0
v -26 18 -0
v -26 23 -0
v -20 7 -0
v -20 17 -0
v -14 7 -0
v -14 17 -0
v -26 18 -1
v -26 23 -1
v -25 18 -1
v -25 23 -1
v -21 17 -1
v -21 18 -1
v -14 17 -1
v -14 18 -1
v -25 18 -2
v -25 23 -2
v -24 18 -2
v -24 23 -2
v -24 18 -3
v -24 23 -3
v -23 22 -3
v -23 23 -3
v -22 18 -3
v -22 22 -3
v -11 18 -3
v -11 23 -3
v -10 23 -3
v -10 30 -3
v -9 30 -3
v -9 31 -3
v -5 18 -3
v -5 31 -3
v -23 22 -4
v -23 23 -4
v -22 18 -4
v -22 22 -4
v -22 23 -4
v -21 21 -4
v -21 22 -4
v -20 18 -4
v -20 21 -4
v -14 18 -4
v -14 22 -4
v -12 22 -4
v -12 23 -4
v -11 18 -4
v -11 23 -4
v -22 22 -5
v -22 23 -5
v -21 21 -5
v -21 22 -5
v -20 18 -5
v -20 21 -5
v -20 22 -5
v -20 23 -5
v -14 18 -5
v -14 22 -5
v -14 23 -5
v -12 22 -5
v -12 23 -5
v -20 22 -6
v -20 23 -6
v -14 22 -6
v -14 23 -6
v -20 7 5
v -14 7 5
v -19 7 4
v -15 7 4
v -19 7 1
v -15 7 1
v -20 7 -0
v -14 7 -0
v -21 17 6
v -14 17 6
v -20 17 5
v -14 17 5
v -20 17 -0
v -14 17 -0
v -21 17 -1
v -14 17 -1
v -20 18 10
v -14 18 10
v -22 18 9
v -20 18 9
v -14 18 9
v -12 18 9
v -23 18 8
v -22 18 8
v -12 18 8
v -11 18 8
v -24 18 7
v -23 18 7
v -11 18 7
v -5 18 7
v -25 18 6
v -24 18 6
v -21 18 6
v -14 18 6
v -26 18 5
v -25 18 5
v -27 18 4
v -26 18 4
v -27 18 -0
v -26 18 -0
v -26 18 -1
v -25 18 -1
v -21 18 -1
v -14 18 -1
v -25 18 -2
v -24 18 -2
v -24 18 -3
v -22 18 -3
v -11 18 -3
v -5 18 -3
v -22 18 -4
v -20 18 -4
v -14 18 -4
v -11 18 -4
v -20 18 -5
v -14 18 -5
v -21 21 -4
v -20 21 -4
v -21 21 -5
v -20 21 -5
v -23 22 -3
v -22 22 -3
v -23 22 -4
v -22 22 -4
v -21 22 -4
v -14 22 -4
v -12 22 -4
v -22 22 -5
v -21 22 -5
v -20 22 -5
v -14 22 -5
v -12 22 -5
v -20 22 -6
v -14 22 -6
v -11 27 8
v -10 27 8
v -10 27 7
v -11 27 5
v -10 27 5
v -19 18 5
v -15 18 5
v -20 18 4
v -19 18 4
v -15 18 4
v -20 18 1
v -19 18 1
v -15 18 1
v -19 18 -0
v -15 18 -0
v -21 19 7
v -14 19 7
v -22 19 6
v -21 19 6
v -23 19 5
v -22 19 5
v -19 19 5
v -15 19 5
v -24 19 4
v -23 19 4
v -20 19 4
v -19 19 4
v -20 19 1
v -19 19 1
v -24 19 -0
v -23 19 -0
v -19 19 -0
v -15 19 -0
v -23 19 -1
v -22 19 -1
v -22 19 -2
v -21 19 -2
v -21 19 -3
v -14 19 -3
v -21 21 8
v -14 21 8
v -22 21 7
v -21 21 7
v -14 21 7
v -23 21 6
v -22 21 6
v -21 21 6
v -24 21 5
v -23 21 5
v -22 21 5
v -25 21 4
v -24 21 4
v -23 21 4
v -25 21 -0
v -24 21 -0
v -23 21 -0
v -24 21 -1
v -23 21 -1
v -22 21 -1
v -23 21 -2
v -22 21 -2
v -21 21 -2
v -22 21 -3
v -21 21 -3
v -14 21 -3
v -21 21 -4
v -14 21 -4
v -20 22 9
v -14 22 9
v -22 22 8
v -21 22 8
v -20 22 8
v -14 22 8
v -13 22 8
v -23 22 7
v -22 22 7
v -21 22 7
v -24 22 6
v -23 22 6
v -22 22 6
v -25 22 5
v -24 22 5
v -23 22 5
v -26 22 4
v -25 22 4
v -24 22 4
v -26 22 -0
v -25 22 -0
v -24 22 -0
v -25 22 -1
v -24 22 -1
v -23 22 -1
v -24 22 -2
v -23 22 -2
v -22 22 -2
v -23 22 -3
v -22 22 -3
v -21 22 -3
v -22 22 -4
v -21 22 -4
v -20 22 -4
v -14 22 -4
v -13 22 -4
v -20 22 -5
v -14 22 -5
v -20 23 10
v -14 23 10
v -22 23 9
v -20 23 9
v -14 23 9
v -12 23 9
v -23 23 8
v -22 23 8
v -20 23 8
v -14 23 8
v -13 23 8
v -12 23 8
v -11 23 8
v -24 23 7
v -23 23 7
v -22 23 7
v -11 23 7
v -10 23 7
v -25 23 6
v -24 23 6
v -23 23 6
v -26 23 5
v -25 23 5
v -24 23 5
v -27 23 4
v -26 23 4
v -25 23 4
v -27 23 -0
v -26 23 -0
v -25 23 -0
v -26 23 -1
v -25 23 -1
v -24 23 -1
v -25 23 -2
v -24 23 -2
v -23 23 -2
v -24 23 -3
v -23 23 -3
v -22 23 -3
v -11 23 -3
v -10 23 -3
v -23 23 -4
v -22 23 -4
v -20 23 -4
v -14 23 -4
v -13 23 -4
v -12 23 -4
v -11 23 -4
v -22 23 -5
v -20 23 -5
v -14 23 -5
v -12 23 -5
v -20 23 -6
v -14 23 -6
v -11 28 8
v -10 28 8
v -10 28 7
v -11 28 5
v -10 28 5
v -10 30 7
v -9 30 7
v -10 30 -3
v -9 30 -3
v -9 31 7
v -5 31 7
v -9 31 -3
v -5 31 -3

# faces
f 3/1/1 2/1/1 1/1/1
f 4/1/1 2/1/1 3/1/1
f 9/1/1 6/1/1 5/1/1
f 10/1/1 6/1/1 9/1/1
f 11/1/1 8/1/1 7/1/1
f 12/1/1 8/1/1 11/1/1
f 17/1/1 14/1/1 13/1/1
f 18/1/1 14/1/1 17/1/1
f 19/1/1 16/1/1 15/1/1
f 20/1/1 16/1/1 19/1/1
f 25/1/1 22/1/1 21/1/1
f 26/1/1 22/1/1 25/1/1
f 27/1/1 24/1/1 23/1/1
f 28/1/1 24/1/1 27/1/1
f 33/1/1 30/1/1 29/1/1
f 34/1/1 30/1/1 33/1/1
f 35/1/1 32/1/1 31/1/1
f 36/1/1 32/1/1 35/1/1
f 41/1/1 40/1/1 39/1/1
f 42/1/1 40/1/1 41/1/1
f 44/1/1 38/1/1 37/1/1
f 45/1/1 38/1/1 44/1/1
f 46/1/1 43/1/1 42/1/1
f 47/1/1 43/1/1 46/1/1
f 50/1/1 49/1/1 48/1/1
f 51/1/1 49/1/1 50/1/1
f 54/1/1 53/1/1 52/1/1
f 55/1/1 53/1/1 54/1/1
f 58/1/1 57/1/1 56/1/1
f 59/1/1 57/1/1 58/1/1
f 64/1/1 63/1/1 62/1/1
f 65/1/1 63/1/1 64/1/1
f 68/1/1 61/1/1 60/1/1
f 69/1/1 61/1/1 68/1/1
f 70/1/1 67/1/1 66/1/1
f 71/1/1 67/1/1 70/1/1
f 75/1/1 73/1/1 72/1/1
f 76/1/1 73/1/1 75/1/1
f 78/1/1 75/1/1 74/1/1
f 78/1/1 77/1/1 76/1/1
f 78/1/1 76/1/1 75/1/1
f 79/1/1 77/1/1 78/1/1
f 83/1/1 81/1/1 80/1/1
f 84/1/1 81/1/1 83/1/1
f 87/1/1 83/1/1 82/1/1
f 87/1/1 85/1/1 84/1/1
f 87/1/1 84/1/1 83/1/1
f 88/1/1 85/1/1 87/1/1
f 90/1/1 87/1/1 86/1/1
f 91/1/1 87/1/1 90/1/1
f 92/1/1 89/1/1 88/1/1
f 93/1/1 89/1/1 92/1/1
f 96/1/1 95/1/1 94/1/1
f 97/1/1 95/1/1 96/1/1
f 100/2/1 99/2/1 98/2/1
f 101/2/1 99/2/1 100/2/1
f 104/1/1 103/1/1 102/1/1
f 105/1/1 103/1/1 104/1/1
f 107/1/1 103/1/1 105/1/1
f 108/1/1 107/1/1 106/1/1
f 109/1/1 103/1/1 107/1/1
f 109/1/1 107/1/1 108/1/1
f 112/1/1 111/1/1 110/1/1
f 113/1/1 111/1/1 112/1/1
f 114/1/2 115/1/2 116/1/2
f 116/1/2 115/1/2 117/1/2
f 118/1/2 119/1/2 121/1/2
f 121/1/2 119/1/2 122/1/2
f 120/1/2 121/1/2 124/1/2
f 124/1/2 121/1/2 125/1/2
f 122/1/2 123/1/2 126/1/2
f 126/1/2 123/1/2 127/1/2
f 128/1/2 129/1/2 131/1/2
f 131/1/2 129/1/2 132/1/2
f 130/1/2 131/1/2 135/1/2
f 135/1/2 131/1/2 136/1/2
f 132/1/2 133/1/2 137/1/2
f 137/1/2 133/1/2 138/1/2
f 134/1/2 135/1/2 140/1/2
f 140/1/2 135/1/2 141/1/2
f 138/1/2 139/1/2 142/1/2
f 142/1/2 139/1/2 143/1/2
f 144/1/2 145/1/2 149/1/2
f 149/1/2 145/1/2 150/1/2
f 146/1/2 147/1/2 151/1/2
f 151/1/2 147/1/2 152/1/2
f 148/1/2 149/1/2 155/1/2
f 155/1/2 149/1/2 156/1/2
f 152/1/2 153/1/2 157/1/2
f 157/1/2 153/1/2 158/1/2
f 154/1/2 155/1/2 160/1/2
f 160/1/2 155/1/2 161/1/2
f 158/1/2 159/1/2 162/1/2
f 162/1/2 159/1/2 163/1/2
f 164/1/2 165/1/2 169/1/2
f 169/1/2 165/1/2 170/1/2
f 166/1/2 167/1/2 171/1/2
f 171/1/2 167/1/2 172/1/2
f 168/1/2 169/1/2 175/1/2
f 175/1/2 169/1/2 176/1/2
f 172/1/2 173/1/2 177/1/2
f 177/1/2 173/1/2 178/1/2
f 174/1/2 175/1/2 180/1/2
f 180/1/2 175/1/2 181/1/2
f 178/1/2 179/1/2 182/1/2
f 182/1/2 179/1/2 183/1/2
f 184/1/2 185/1/2 189/1/2
f 189/1/2 185/1/2 190/1/2
f 186/1/2 187/1/2 191/1/2
f 191/1/2 187/1/2 192/1/2
f 188/1/2 189/1/2 194/1/2
f 194/1/2 189/1/2 195/1/2
f 192/1/2 193/1/2 196/1/2
f 196/1/2 193/1/2 197/1/2
f 198/1/2 199/1/2 200/1/2
f 200/1/2 199/1/2 201/1/2
f 202/1/2 203/1/2 206/1/2
f 206/1/2 203/1/2 207/1/2
f 204/1/2 205/1/2 208/1/2
f 208/1/2 205/1/2 209/1/2
f 210/1/2 211/1/2 213/1/2
f 213/1/2 211/1/2 214/1/2
f 212/1/2 213/1/2 216/1/2
f 216/1/2 213/1/2 217/1/2
f 214/1/2 215/1/2 218/1/2
f 218/1/2 215/1/2 219/1/2
f 220/1/2 221/1/2 223/1/2
f 223/1/2 221/1/2 224/1/2
f 222/1/2 223/1/2 228/1/2
f 223/1/2 224/1/2 228/1/2
f 224/1/2 225/1/2 228/1/2
f 228/1/2 225/1/2 229/1/2
f 230/1/2 231/1/2 232/1/2
f 232/1/2 231/1/2 233/1/2
f 226/1/2 227/1/2 235/1/2
f 235/1/2 227/1/2 236/1/2
f 233/1/2 234/1/2 237/1/2
f 237/1/2 234/1/2 238/1/2
f 239/1/2 240/1/2 243/1/2
f 243/1/2 240/1/2 244/1/2
f 241/1/2 242/1/2 245/1/2
f 245/1/2 242/1/2 246/1/2
f 247/1/2 248/1/2 251/1/2
f 251/1/2 248/1/2 252/1/2
f 249/1/2 250/1/2 253/1/2
f 253/1/2 250/1/2 254/1/2
f 255/2/2 256/2/2 257/2/2
f 257/2/2 256/2/2 258/2/2
f 259/1/2 260/1/2 261/1/2
f 261/1/2 260/1/2 262/1/2
f 265/1/3 264/1/3 263/1/3
f 266/1/3 264/1/3 265/1/3
f 269/1/3 268/1/3 267/1/3
f 270/1/3 268/1/3 269/1/3
f 273/1/3 272/1/3 271/1/3
f 274/1/3 272/1/3 273/1/3
f 277/1/3 276/1/3 275/1/3
f 278/1/3 276/1/3 277/1/3
f 281/1/3 280/1/3 279/1/3
f 282/1/3 280/1/3 281/1/3
f 285/2/3 284/2/3 283/2/3
f 286/2/3 284/2/3 285/2/3
f 289/1/3 288/1/3 287/1/3
f 290/1/3 288/1/3 289/1/3
f 293/1/3 292/1/3 291/1/3
f 297/1/3 294/1/3 293/1/3
f 297/1/3 296/1/3 295/1/3
f 297/1/3 295/1/3 294/1/3
f 299/1/3 293/1/3 291/1/3
f 299/1/3 298/1/3 297/1/3
f 299/1/3 297/1/3 293/1/3
f 300/1/3 298/1/3 299/1/3
f 303/1/3 302/1/3 301/1/3
f 304/1/3 302/1/3 303/1/3
f 307/1/3 306/1/3 305/1/3
f 308/1/3 306/1/3 307/1/3
f 311/1/3 310/1/3 309/1/3
f 312/1/3 310/1/3 311/1/3
f 315/1/3 314/1/3 313/1/3
f 316/1/3 314/1/3 315/1/3
f 319/1/3 318/1/3 317/1/3
f 320/1/3 318/1/3 319/1/3
f 324/1/3 322/1/3 321/1/3
f 325/1/3 322/1/3 324/1/3
f 326/1/3 324/1/3 323/1/3
f 327/1/3 324/1/3 326/1/3
f 331/1/3 329/1/3 328/1/3
f 332/1/3 329/1/3 331/1/3
f 334/1/3 331/1/3 330/1/3
f 335/1/3 331/1/3 334/1/3
f 336/1/3 334/1/3 333/1/3
f 337/1/3 334/1/3 336/1/3
f 340/1/3 339/1/3 338/1/3
f 341/1/3 339/1/3 340/1/3
f 345/1/3 343/1/3 342/1/3
f 346/1/3 343/1/3 345/1/3
f 348/1/3 345/1/3 344/1/3
f 349/1/3 345/1/3 348/1/3
f 350/1/3 348/1/3 347/1/3
f 351/1/3 348/1/3 350/1/3
f 355/1/3 353/1/3 352/1/3
f 356/1/3 353/1/3 355/1/3
f 358/1/3 355/1/3 354/1/3
f 359/1/3 355/1/3 358/1/3
f 360/1/3 358/1/3 357/1/3
f 361/1/3 358/1/3 360/1/3
f 365/1/3 363/1/3 362/1/3
f 366/1/3 363/1/3 365/1/3
f 368/1/3 365/1/3 364/1/3
f 369/1/3 365/1/3 368/1/3
f 370/1/3 368/1/3 367/1/3
f 371/1/3 368/1/3 370/1/3
f 375/1/3 373/1/3 372/1/3
f 376/1/3 373/1/3 375/1/3
f 376/1/3 375/1/3 374/1/3
f 377/1/3 373/1/3 376/1/3
f 378/1/3 376/1/3 374/1/3
f 379/1/3 376/1/3 378/1/3
f 381/1/3 380/1/3 379/1/3
f 382/1/3 380/1/3 381/1/3
f 385/1/3 384/1/3 383/1/3
f 386/1/3 384/1/3 385/1/3
f 387/1/4 388/1/4 389/1/4
f 389/1/4 388/1/4 390/1/4
f 391/1/4 392/1/4 394/1/4
f 394/1/4 392/1/4 395/1/4
f 393/1/4 394/1/4 395/1/4
f 395/1/4 392/1/4 396/1/4
f 393/1/4 395/1/4 397/1/4
f 397/1/4 395/1/4 398/1/4
f 398/1/4 399/1/4 400/1/4
f 400/1/4 399/1/4 401/1/4
f 402/1/4 403/1/4 405/1/4
f 405/1/4 403/1/4 406/1/4
f 404/1/4 405/1/4 408/1/4
f 408/1/4 405/1/4 409/1/4
f 407/1/4 408/1/4 410/1/4
f 410/1/4 408/1/4 411/1/4
f 412/1/4 413/1/4 415/1/4
f 415/1/4 413/1/4 416/1/4
f 414/1/4 415/1/4 418/1/4
f 418/1/4 415/1/4 419/1/4
f 417/1/4 418/1/4 420/1/4
f 420/1/4 418/1/4 421/1/4
f 422/1/4 423/1/4 425/1/4
f 425/1/4 423/1/4 426/1/4
f 424/1/4 425/1/4 428/1/4
f 428/1/4 425/1/4 429/1/4
f 427/1/4 428/1/4 430/1/4
f 430/1/4 428/1/4 431/1/4
f 432/1/4 433/1/4 434/1/4
f 434/1/4 433/1/4 435/1/4
f 436/2/4 437/2/4 438/2/4
f 438/2/4 437/2/4 439/2/4
f 440/1/4 441/1/4 443/1/4
f 443/1/4 441/1/4 444/1/4
f 442/1/4 443/1/4 446/1/4
f 446/1/4 443/1/4 447/1/4
f 445/1/4 446/1/4 448/1/4
f 448/1/4 446/1/4 449/1/4
f 450/1/4 451/1/4 453/1/4
f 453/1/4 451/1/4 454/1/4
f 452/1/4 453/1/4 455/1/4
f 455/1/4 453/1/4 456/1/4
f 457/1/4 458/1/4 459/1/4
f 459/1/4 458/1/4 460/1/4
f 461/1/4 462/1/4 463/1/4
f 463/1/4 462/1/4 464/1/4
f 465/1/4 466/1/4 467/1/4
f 467/1/4 466/1/4 468/1/4
f 469/1/4 470/1/4 471/1/4
f 471/1/4 470/1/4 472/1/4
f 473/1/4 474/1/4 475/1/4
f 475/1/4 474/1/4 476/1/4
f 477/1/4 478/1/4 479/1/4
f 479/1/4 478/1/4 480/1/4
f 477/1/4 479/1/4 481/1/4
f 481/1/4 479/1/4 482/1/4
f 483/1/4 484/1/4 485/1/4
f 485/1/4 486/1/4 487/1/4
f 483/1/4 485/1/4 489/1/4
f 487/1/4 488/1/4 489/1/4
f 485/1/4 487/1/4 489/1/4
f 489/1/4 488/1/4 490/1/4
f 491/1/4 492/1/4 494/1/4
f 494/1/4 492/1/4 495/1/4
f 493/1/4 494/1/4 496/1/4
f 496/1/4 494/1/4 497/1/4
f 493/1/4 496/1/4 498/1/4
f 498/1/4 496/1/4 499/1/4
f 500/1/4 501/1/4 502/1/4
f 500/1/4 502/1/4 504/1/4
f 502/1/4 503/1/4 504/1/4
f 504/1/4 503/1/4 505/1/4
f 506/1/4 507/1/4 509/1/4
f 508/1/4 509/1/4 511/1/4
f 509/1/4 507/1/4 512/1/4
f 511/1/4 509/1/4 512/1/4
f 512/1/4 507/1/4 513/1/4
f 510/1/4 511/1/4 514/1/4
f 511/1/4 512/1/4 514/1/4
f 514/1/4 512/1/4 515/1/4
f 515/1/4 516/1/4 517/1/4
f 517/1/4 516/1/4 518/1/4
f 519/1/4 520/1/4 521/1/4
f 521/1/4 520/1/4 522/1/4
f 525/1/5 524/1/5 523/1/5
f 526/1/5 524/1/5 525/1/5
f 527/1/5 525/1/5 523/1/5
f 528/1/5 524/1/5 526/1/5
f 529/1/5 527/1/5 523/1/5
f 529/1/5 528/1/5 527/1/5
f 530/1/5 524/1/5 528/1/5
f 530/1/5 528/1/5 529/1/5
f 533/1/5 532/1/5 531/1/5
f 534/1/5 532/1/5 533/1/5
f 535/1/5 533/1/5 531/1/5
f 537/1/5 535/1/5 531/1/5
f 537/1/5 536/1/5 535/1/5
f 538/1/5 536/1/5 537/1/5
f 542/1/5 540/1/5 539/1/5
f 543/1/5 540/1/5 542/1/5
f 546/1/5 542/1/5 541/1/5
f 546/1/5 544/1/5 543/1/5
f 546/1/5 543/1/5 542/1/5
f 547/1/5 544/1/5 546/1/5
f 550/1/5 546/1/5 545/1/5
f 550/1/5 548/1/5 547/1/5
f 550/1/5 547/1/5 546/1/5
f 551/1/5 548/1/5 550/1/5
f 554/1/5 550/1/5 549/1/5
f 554/1/5 552/1/5 551/1/5
f 554/1/5 551/1/5 550/1/5
f 555/1/5 552/1/5 554/1/5
f 556/1/5 552/1/5 555/1/5
f 558/1/5 554/1/5 553/1/5
f 558/1/5 555/1/5 554/1/5
f 560/1/5 558/1/5 557/1/5
f 561/1/5 560/1/5 559/1/5
f 562/1/5 558/1/5 560/1/5
f 562/1/5 560/1/5 561/1/5
f 563/1/5 558/1/5 562/1/5
f 564/1/5 555/1/5 558/1/5
f 564/1/5 558/1/5 563/1/5
f 565/1/5 555/1/5 564/1/5
f 566/1/5 552/1/5 556/1/5
f 567/1/5 565/1/5 564/1/5
f 567/1/5 566/1/5 565/1/5
f 568/1/5 566/1/5 567/1/5
f 569/1/5 566/1/5 568/1/5
f 570/1/5 566/1/5 569/1/5
f 571/1/5 552/1/5 566/1/5
f 571/1/5 566/1/5 570/1/5
f 572/1/5 552/1/5 571/1/5
f 573/1/5 571/1/5 570/1/5
f 574/1/5 571/1/5 573/1/5
f 575/1/5 571/1/5 574/1/5
f 576/1/5 571/1/5 575/1/5
f 577/1/5 575/1/5 574/1/5
f 578/1/5 575/1/5 577/1/5
f 581/1/5 580/1/5 579/1/5
f 582/1/5 580/1/5 581/1/5
f 585/1/5 584/1/5 583/1/5
f 586/1/5 584/1/5 585/1/5
f 590/1/5 587/1/5 586/1/5
f 591/1/5 587/1/5 590/1/5
f 593/1/5 589/1/5 588/1/5
f 594/1/5 589/1/5 593/1/5
f 595/1/5 593/1/5 592/1/5
f 596/1/5 593/1/5 595/1/5
f 599/2/5 598/2/5 597/2/5
f 600/2/5 599/2/5 597/2/5
f 601/2/5 599/2/5 600/2/5
f 602/1/6 603/1/6 605/1/6
f 605/1/6 603/1/6 606/1/6
f 604/1/6 605/1/6 607/1/6
f 607/1/6 605/1/6 608/1/6
f 608/1/6 609/1/6 610/1/6
f 610/1/6 609/1/6 611/1/6
f 612/1/6 613/1/6 615/1/6
f 614/1/6 615/1/6 617/1/6
f 615/1/6 613/1/6 618/1/6
f 617/1/6 615/1/6 618/1/6
f 618/1/6 613/1/6 619/1/6
f 616/1/6 617/1/6 621/1/6
f 617/1/6 618/1/6 621/1/6
f 621/1/6 618/1/6 622/1/6
f 622/1/6 618/1/6 623/1/6
f 620/1/6 621/1/6 624/1/6
f 621/1/6 622/1/6 624/1/6
f 620/1/6 624/1/6 626/1/6
f 624/1/6 625/1/6 626/1/6
f 626/1/6 625/1/6 627/1/6
f 627/1/6 625/1/6 628/1/6
f 619/1/6 613/1/6 629/1/6
f 627/1/6 628/1/6 630/1/6
f 628/1/6 629/1/6 630/1/6
f 630/1/6 629/1/6 631/1/6
f 631/1/6 629/1/6 632/1/6
f 632/1/6 629/1/6 633/1/6
f 633/1/6 629/1/6 634/1/6
f 629/1/6 613/1/6 635/1/6
f 634/1/6 629/1/6 635/1/6
f 636/1/6 637/1/6 639/1/6
f 639/1/6 637/1/6 640/1/6
f 638/1/6 639/1/6 642/1/6
f 642/1/6 639/1/6 643/1/6
f 641/1/6 642/1/6 645/1/6
f 645/1/6 642/1/6 646/1/6
f 644/1/6 645/1/6 648/1/6
f 648/1/6 645/1/6 649/1/6
f 647/1/6 648/1/6 650/1/6
f 650/1/6 648/1/6 651/1/6
f 651/1/6 652/1/6 653/1/6
f 653/1/6 652/1/6 654/1/6
f 654/1/6 655/1/6 656/1/6
f 656/1/6 655/1/6 657/1/6
f 657/1/6 658/1/6 659/1/6
f 659/1/6 658/1/6 660/1/6
f 660/1/6 661/1/6 662/1/6
f 662/1/6 661/1/6 663/1/6
f 664/1/6 665/1/6 668/1/6
f 668/1/6 665/1/6 669/1/6
f 666/1/6 667/1/6 672/1/6
f 672/1/6 667/1/6 673/1/6
f 671/1/6 672/1/6 675/1/6
f 675/1/6 672/1/6 676/1/6
f 674/1/6 675/1/6 678/1/6
f 678/1/6 675/1/6 679/1/6
f 677/1/6 678/1/6 681/1/6
f 681/1/6 678/1/6 682/1/6
f 680/1/6 681/1/6 683/1/6
f 683/1/6 681/1/6 684/1/6
f 684/1/6 685/1/6 686/1/6
f 686/1/6 685/1/6 687/1/6
f 687/1/6 688/1/6 689/1/6
f 689/1/6 688/1/6 690/1/6
f 690/1/6 691/1/6 692/1/6
f 692/1/6 691/1/6 693/1/6
f 693/1/6 694/1/6 695/1/6
f 695/1/6 694/1/6 696/1/6
f 669/1/6 670/1/6 698/1/6
f 698/1/6 670/1/6 699/1/6
f 697/1/6 698/1/6 700/1/6
f 700/1/6 698/1/6 701/1/6
f 702/1/6 703/1/6 705/1/6
f 705/1/6 703/1/6 706/1/6
f 704/1/6 705/1/6 709/1/6
f 709/1/6 705/1/6 710/1/6
f 706/1/6 707/1/6 711/1/6
f 711/1/6 707/1/6 712/1/6
f 712/1/6 707/1/6 713/1/6
f 708/1/6 709/1/6 716/1/6
f 716/1/6 709/1/6 717/1/6
f 713/1/6 714/1/6 718/1/6
f 712/1/6 713/1/6 718/1/6
f 715/1/6 716/1/6 721/1/6
f 721/1/6 716/1/6 722/1/6
f 720/1/6 721/1/6 724/1/6
f 724/1/6 721/1/6 725/1/6
f 723/1/6 724/1/6 727/1/6
f 727/1/6 724/1/6 728/1/6
f 726/1/6 727/1/6 729/1/6
f 729/1/6 727/1/6 730/1/6
f 730/1/6 731/1/6 732/1/6
f 732/1/6 731/1/6 733/1/6
f 733/1/6 734/1/6 735/1/6
f 735/1/6 734/1/6 736/1/6
f 736/1/6 737/1/6 738/1/6
f 738/1/6 737/1/6 739/1/6
f 718/1/6 719/1/6 741/1/6
f 712/1/6 718/1/6 741/1/6
f 741/1/6 719/1/6 742/1/6
f 739/1/6 740/1/6 743/1/6
f 743/1/6 740/1/6 744/1/6
f 712/1/6 741/1/6 747/1/6
f 747/1/6 741/1/6 748/1/6
f 748/1/6 741/1/6 749/1/6
f 744/1/6 745/1/6 750/1/6
f 750/1/6 745/1/6 751/1/6
f 747/1/6 748/1/6 752/1/6
f 746/1/6 747/1/6 752/1/6
f 752/1/6 748/1/6 753/1/6
f 751/1/6 752/1/6 754/1/6
f 754/1/6 752/1/6 755/1/6
f 756/2/6 757/2/6 758/2/6
f 756/2/6 758/2/6 759/2/6
f 759/2/6 758/2/6 760/2/6
f 761/1/6 762/1/6 763/1/6
f 763/1/6 762/1/6 764/1/6
f 765/1/6 766/1/6 767/1/6
f 767/1/6 766/1/6 768/1/6
